<?xml version="1.0" encoding="UTF-8"?>
<svg version="1.1" xmlns="http://www.w3.org/2000/svg" width="2054" height="544">
<path d="M0 0 C677.82 0 1355.64 0 2054 0 C2054 179.52 2054 359.04 2054 544 C1376.18 544 698.36 544 0 544 C0 364.48 0 184.96 0 0 Z " fill="#FEFEFE" transform="translate(0,0)"/>
<path d="M0 0 C141.9 0 283.8 0 430 0 C430 17.16 430 34.32 430 52 C305.26 52 180.52 52 52 52 C52 65.2 52 78.4 52 92 C176.74 92 301.48 92 430 92 C430 108.83 430 125.66 430 143 C288.1 143 146.2 143 0 143 C0 95.81 0 48.62 0 0 Z " fill="#020202" transform="translate(569,248)"/>
<path d="M0 0 C17.16 0 34.32 0 52 0 C52.02578125 5.5378125 52.0515625 11.075625 52.078125 16.78125 C52.10330568 20.29952481 52.12964789 23.81771469 52.16015625 27.3359375 C52.20841988 32.91439077 52.25249131 38.49264735 52.27099609 44.07128906 C52.28619315 48.57137009 52.32069245 53.07093489 52.36830902 57.57078552 C52.38309147 59.2834371 52.39103921 60.9961624 52.39188385 62.70887756 C52.31431977 76.7905054 52.31431977 76.7905054 59.38058472 88.65861511 C64.01602653 92.38234979 69.57110612 91.70175664 75.24755859 91.65942383 C76.47738464 91.66990753 77.70721069 91.68039124 78.9743042 91.69119263 C82.33380038 91.71500297 85.69194984 91.71688047 89.05142927 91.70889878 C92.56690297 91.70576801 96.08217485 91.73082465 99.5975647 91.75285339 C106.24852007 91.79026738 112.89927099 91.80243979 119.55032122 91.8054778 C127.86828428 91.81063226 136.18604521 91.84959675 144.50390625 91.88867188 C159.33599525 91.95820022 174.16760642 91.97669861 189 92 C189 73.19 189 54.38 189 35 C205.83 35 222.66 35 240 35 C240 53.81 240 72.62 240 92 C263.1016053 91.99354974 263.1016053 91.99354974 286.20284081 91.92868423 C294.4655387 91.89545974 302.72795115 91.8710804 310.99072266 91.87988281 C317.53338764 91.88682436 324.07561509 91.8726932 330.61817265 91.83356392 C334.08055445 91.81358413 337.54224981 91.80394953 341.00466919 91.81957626 C344.87591297 91.8366524 348.74603712 91.80666807 352.6171875 91.77294922 C353.75726761 91.78517014 354.89734772 91.79739105 356.07197571 91.8099823 C362.56565774 91.70817383 366.48703689 90.82011174 371.49612427 86.58439827 C376.84790681 80.94606339 377.1160929 74.11174434 377.20532227 66.73120117 C377.21522186 66.01846039 377.22512146 65.3057196 377.23532104 64.57138062 C377.26676774 62.2286098 377.29162646 59.88581876 377.31640625 57.54296875 C377.33699034 55.9134317 377.35798718 54.28389981 377.37937927 52.65437317 C377.43444976 48.37517492 377.483925 44.09592968 377.53222656 39.81665039 C377.59140696 34.67702368 377.65755192 29.53748243 377.72252655 24.39792633 C377.82034694 16.59866996 377.90933223 8.79935758 378 1 C394.83 1 411.66 1 429 1 C429.08021762 25.84517912 429.08021762 25.84517912 429.09765625 36.46289062 C429.10959629 43.69835353 429.12369832 50.93376565 429.15087891 58.16918945 C429.17266259 64.00470599 429.18458031 69.84016805 429.18975449 75.67572212 C429.19344032 77.89837056 429.20063778 80.12101613 429.21146011 82.34364128 C429.22604836 85.46475467 429.22797487 88.58564493 429.22705078 91.70678711 C429.23424133 92.61885422 429.24143188 93.53092133 429.24884033 94.47062683 C429.20375818 108.60858798 424.32979632 120.46726793 414.484375 130.7421875 C402.82934691 141.33433567 391.33492166 143.46375976 376.00341797 143.34057617 C374.51427732 143.33972838 373.02513541 143.34020801 371.53599548 143.34190369 C367.52214095 143.34275914 363.5085592 143.325207 359.49476767 143.30418181 C355.28942365 143.28533934 351.08407235 143.28365864 346.87869263 143.28010559 C338.92808115 143.27080725 330.97759445 143.24622364 323.02703774 143.21605712 C313.97016388 143.182444 304.91328384 143.16600977 295.85636306 143.15097082 C277.23749041 143.11967191 258.61878865 143.06468773 240 143 C240 157.52 240 172.04 240 187 C223.17 187 206.34 187 189 187 C189 172.48 189 157.96 189 143 C182.18746582 143.03927612 182.18746582 143.03927612 175.23730469 143.0793457 C160.21383892 143.16227895 145.190364 143.21771269 130.16672897 143.25906086 C121.0599268 143.28479327 111.95334218 143.31984832 102.84667969 143.37719727 C94.90514194 143.42718484 86.96376184 143.45932706 79.02207112 143.47044247 C74.82069576 143.47693539 70.61977119 143.49209057 66.41854095 143.52865028 C62.45563171 143.56285327 58.49335443 143.57300466 54.53031158 143.56553841 C53.08401543 143.56690221 51.63769583 143.57668949 50.19152832 143.59602737 C38.31534633 143.74690338 28.5496826 141.32882618 19 134 C18.45085937 133.60554687 17.90171875 133.21109375 17.3359375 132.8046875 C8.19393066 125.75688487 2.25578692 114.19519027 0 103 C-0.85693082 95.07172692 -0.58441032 87.06219414 -0.48828125 79.1015625 C-0.47893814 76.81229429 -0.47182912 74.52301598 -0.46684265 72.23373413 C-0.44789093 66.25280412 -0.39889325 60.27249597 -0.34332275 54.29180908 C-0.28280364 47.09219205 -0.26015773 39.89236532 -0.23105621 32.69256592 C-0.18282047 21.79461347 -0.08692147 10.89802136 0 0 Z " fill="#010101" transform="translate(1046,248)"/>
<path d="M0 0 C117.81 0 235.62 0 357 0 C356.05803473 5.65179159 354.40900409 10.12893605 352.08398438 15.2578125 C349.08021675 22.29812015 349.24018619 27.55286059 352.046875 34.609375 C352.93357344 36.66250413 353.8350317 38.70931228 354.75 40.75 C357.88614488 47.87925958 360.72192087 54.95568031 363.11523438 62.37011719 C364.15229254 65.45267529 365.43414785 68.33573407 366.875 71.25 C369.41053577 76.59364164 371.57342135 82.01127924 373.60668945 87.55883789 C375.6592803 93.14302422 377.83964412 98.66902544 380.0625 104.1875 C382.71611992 110.77762395 385.31322727 117.3820167 387.8359375 124.0234375 C389.48431343 128.23841219 391.27453173 132.39015591 393.08203125 136.5390625 C394 139 394 139 394 142 C376.84 142 359.68 142 342 142 C336.37578991 130.75157982 336.37578991 130.75157982 334.49560547 126.30444336 C334.07101044 125.30477036 333.64641541 124.30509735 333.20895386 123.27513123 C332.76617096 122.22398636 332.32338806 121.17284149 331.8671875 120.08984375 C331.15116867 118.40212608 331.15116867 118.40212608 330.42068481 116.68031311 C328.90243392 113.10064705 327.38839635 109.51922083 325.875 105.9375 C323.8954253 101.25818159 321.91347676 96.5798769 319.9296875 91.90234375 C319.44385193 90.75535004 318.95801636 89.60835632 318.4574585 88.42660522 C314.50496287 79.12209567 310.4432226 69.86787862 306.30709839 60.64353943 C305.6545256 59.17752037 305.6545256 59.17752037 304.98876953 57.68188477 C304.60351105 56.82281021 304.21825256 55.96373566 303.82131958 55.07862854 C303 53 303 53 303 51 C221.16 51 139.32 51 55 51 C54.01 53.97 53.02 56.94 52 60 C51.15016082 62.10680399 50.27031733 64.20185063 49.35546875 66.28125 C48.85039795 67.4364917 48.34532715 68.5917334 47.82495117 69.78198242 C47.55862885 70.38658295 47.29230652 70.99118347 47.01791382 71.61410522 C45.56571194 74.9120994 44.12730146 78.2161092 42.6875 81.51953125 C42.38672043 82.2088826 42.08594086 82.89823395 41.77604675 83.60847473 C38.36099868 91.44597355 35.02093637 99.31502157 31.6875 107.1875 C31.40957611 107.84331055 31.13165222 108.49912109 30.8453064 109.17480469 C26.21196791 120.10887194 21.60828198 131.05533031 17 142 C-0.49 142 -17.98 142 -36 142 C-28.00164474 119.14755639 -28.00164474 119.14755639 -25 111.875 C-24.31828137 110.19560826 -23.63730596 108.51591465 -22.95703125 106.8359375 C-22.62654785 106.0222168 -22.29606445 105.20849609 -21.95556641 104.37011719 C-20.49984915 100.75946234 -19.09149321 97.13101692 -17.6875 93.5 C-14.73079121 85.86612817 -11.74475786 78.24402402 -8.75 70.625 C-8.05741089 68.8615625 -8.05741089 68.8615625 -7.35083008 67.0625 C-5.12709628 61.40250345 -2.90012647 55.74385448 -0.6628418 50.08920288 C0.35604745 47.51331852 1.37311569 44.93671701 2.39001465 42.36004639 C3.11140497 40.5344053 3.8354623 38.70981878 4.55957031 36.88525391 C4.99624023 35.77843262 5.43291016 34.67161133 5.8828125 33.53125 C6.26840332 32.55736328 6.65399414 31.58347656 7.05126953 30.58007812 C7.52089111 29.30293945 7.52089111 29.30293945 8 28 C8.2472583 27.33178223 8.4945166 26.66356445 8.74926758 25.97509766 C9.10469412 23.17529172 8.23885459 21.44544896 7.12890625 18.8671875 C6.51499023 17.41119141 6.51499023 17.41119141 5.88867188 15.92578125 C5.2322168 14.41564453 5.2322168 14.41564453 4.5625 12.875 C3.70676426 10.87362103 2.85375639 8.87107277 2.00390625 6.8671875 C1.62049072 5.98144043 1.2370752 5.09569336 0.84204102 4.18310547 C0 2 0 2 0 0 Z " fill="#010101" transform="translate(132,249)"/>
<path d="M0 0 C141.9 0 283.8 0 430 0 C430 16.83 430 33.66 430 51 C288.1 51 146.2 51 0 51 C0 34.17 0 17.34 0 0 Z " fill="#010101" transform="translate(1522,157)"/>
<path d="M0 0 C141.9 0 283.8 0 430 0 C430 16.83 430 33.66 430 51 C288.1 51 146.2 51 0 51 C0 34.17 0 17.34 0 0 Z " fill="#010101" transform="translate(569,157)"/>
<path d="M0 0 C1.42073932 -0.0034641 2.84147594 -0.00823369 4.26220703 -0.01418173 C8.13414332 -0.02661814 12.00585563 -0.02055524 15.87779236 -0.01122308 C20.06600403 -0.0044025 24.25417864 -0.01492865 28.44238281 -0.02316284 C36.63439158 -0.03647041 44.82631767 -0.03363574 53.01832962 -0.02492492 C59.67889329 -0.01813704 66.33943386 -0.01723642 73 -0.02049637 C73.94963371 -0.02095607 74.89926743 -0.02141577 75.87767792 -0.0218894 C77.80711874 -0.02284862 79.73655956 -0.02382126 81.66600037 -0.02480717 C99.73877201 -0.03335235 117.81149794 -0.02354064 135.88426208 -0.00740607 C151.37598928 0.00599631 166.86764902 0.00366797 182.359375 -0.01016235 C200.36951812 -0.02623359 218.37962122 -0.03252845 236.38977051 -0.02332556 C238.31193033 -0.02236996 240.23409016 -0.02142685 242.15625 -0.02049637 C243.10187553 -0.02003354 244.04750107 -0.01957072 245.02178192 -0.01909386 C251.67078109 -0.01650861 258.31975478 -0.02086494 264.96875 -0.02793503 C273.07675734 -0.03636739 281.1846776 -0.03403346 289.29267502 -0.0180928 C293.4258376 -0.0102334 297.55885524 -0.00707848 301.6920166 -0.01704025 C305.48193289 -0.02603627 309.27157104 -0.02097439 313.0614624 -0.0051076 C315.06815633 -0.00021479 317.07486985 -0.00991219 319.08154297 -0.02027929 C335.41708709 0.08492238 348.39045216 4.6736451 360.3515625 15.95126343 C369.90214256 26.37312447 372.578125 37.42890576 372.578125 51.38095093 C231.008125 51.38095093 89.438125 51.38095093 -56.421875 51.38095093 C-56.421875 36.34748183 -52.432611 24.82413679 -42.234375 13.63095093 C-30.0795425 2.34432075 -16.02665847 -0.08279872 0 0 Z " fill="#010101" transform="translate(1102.421875,156.61904907226563)"/>
<path d="M0 0 C16.83 0 33.66 0 51 0 C51 46.86 51 93.72 51 142 C34.17 142 17.34 142 0 142 C0 95.14 0 48.28 0 0 Z " fill="#000000" transform="translate(1711,249)"/>
<path d="M0 0 C2.21463013 -0.36076355 2.21463013 -0.36076355 5.00048828 -0.34057617 C6.56188034 -0.34023628 6.56188034 -0.34023628 8.15481567 -0.33988953 C9.28192963 -0.32440567 10.40904358 -0.30892181 11.5703125 -0.29296875 C13.29735916 -0.28660149 13.29735916 -0.28660149 15.05929565 -0.28010559 C18.74809855 -0.26327052 22.43636136 -0.22560874 26.125 -0.1875 C28.62108588 -0.17245944 31.11718029 -0.15876995 33.61328125 -0.14648438 C39.74237275 -0.1133512 45.8711478 -0.06310389 52 0 C51.17647038 4.4450525 49.7978856 8.53628137 48.1875 12.75 C47.91687744 13.46518799 47.64625488 14.18037598 47.36743164 14.91723633 C45.71162807 19.25405241 43.93943419 23.50829314 42 27.7265625 C38.65591223 35.32913703 35.9143802 43.22831947 33 51 C15.18 51 -2.64 51 -21 51 C-20.30084487 46.80506923 -19.8535876 44.19978512 -18.26586914 40.51098633 C-17.91202652 39.68025101 -17.5581839 38.84951569 -17.19361877 37.99360657 C-16.81132614 37.11528671 -16.42903351 36.23696686 -16.03515625 35.33203125 C-15.64178574 34.41540207 -15.24841522 33.49877289 -14.84312439 32.55436707 C-14.01321716 30.62416735 -13.18010646 28.69534222 -12.34399414 26.76782227 C-11.06365833 23.8151713 -9.79372989 20.85821183 -8.52539062 17.90039062 C-7.71675225 16.02317616 -6.90752754 14.14621414 -6.09765625 12.26953125 C-5.71738785 11.3851387 -5.33711945 10.50074615 -4.94532776 9.58955383 C-4.40983559 8.35763557 -4.40983559 8.35763557 -3.86352539 7.10083008 C-3.55121475 6.37946365 -3.23890411 5.65809723 -2.91712952 4.91487122 C-2 3 -2 3 0 0 Z " fill="#030303" transform="translate(474,157)"/>
<path d="M0 0 C17.49 0 34.98 0 53 0 C56.3 7.6725 59.6 15.345 63 23.25 C64.04414063 25.66731445 65.08828125 28.08462891 66.1640625 30.57519531 C66.98494761 32.49259349 67.80529686 34.41022122 68.625 36.328125 C69.27275391 37.81965088 69.27275391 37.81965088 69.93359375 39.34130859 C70.54267578 40.77192627 70.54267578 40.77192627 71.1640625 42.23144531 C71.51936035 43.05751282 71.8746582 43.88358032 72.24072266 44.73468018 C73 47 73 47 73 51 C55.18 51 37.36 51 19 51 C12.875 34.9375 12.875 34.9375 10.98388672 29.97241211 C10.46611011 28.61561203 9.94805231 27.25891922 9.4296875 25.90234375 C9.1498703 25.16950668 8.8700531 24.43666962 8.58175659 23.68162537 C6.16180849 17.36847866 3.6352149 11.10166475 1.07080078 4.84594727 C0 2 0 2 0 0 Z " fill="#020202" transform="translate(96,157)"/>
</svg>
